<?xml version="1.0" encoding="UTF-8" standalone="no"?>
<svg
   version="1.0"
   width="700pt"
   height="700pt"
   viewBox="0 0 700 700"
   preserveAspectRatio="xMidYMid"
   id="svg4"
   sodipodi:docname="stephen_littleton.svg"
   xmlns:inkscape="http://www.inkscape.org/namespaces/inkscape"
   xmlns:sodipodi="http://sodipodi.sourceforge.net/DTD/sodipodi-0.dtd"
   xmlns="http://www.w3.org/2000/svg"
   xmlns:svg="http://www.w3.org/2000/svg">
  <sodipodi:namedview
     id="namedview1"
     pagecolor="#ffffff"
     bordercolor="#000000"
     borderopacity="0.25"
     inkscape:showpageshadow="2"
     inkscape:pageopacity="0.0"
     inkscape:pagecheckerboard="0"
     inkscape:deskcolor="#d1d1d1"
     inkscape:document-units="pt" />
  <defs
     id="defs4" />
  <metadata
     id="metadata1">
Created by potrace 1.14, written by Peter Selinger 2001-2017
</metadata>
  <g
     transform="matrix(0.1,0,0,-0.1,0,700)"
     fill="#000000"
     stroke="none"
     id="g4"
     style="fill:#ffffff;fill-opacity:1;stroke:none;stroke-opacity:1">
    <path
       id="path1"
       style="fill:#ffffff;fill-opacity:1;stroke:none;stroke-opacity:1"
       d="m 3498.75,5883.9941 c -116.7499,0.75 -232.25,-0.499 -258.75,-3.999 -261.9997,-36.9999 -513.0002,-139.9943 -720,-293.9941 -59.9999,-45 -158.9991,-148.0011 -213.999,-221.001 -64,-85.9999 -137.0069,-236.005 -152.0069,-310.0049 -1,-5 -8.9922,-43.9903 -16.9921,-84.9902 -9,-41 -19.002,-88 -22.002,-105 -7,-32 -7,-435.0098 0,-500.0098 2,-22 8.9961,-83.9922 15.9961,-136.9922 11,-93.9999 8.0019,-131.0058 -7.9981,-126.0058 -19.9999,7 -90.0019,-36.002 -112.0019,-67.002 -88.9999,-130.9999 -41.0018,-436.9914 97.998,-620.9912 69,-91.9999 98.0011,-138.9991 161.001,-258.999 94.9999,-179.9998 178.0021,-316.005 262.002,-430.0049 194.9998,-262.9997 436.0032,-443.002 693.0029,-517.002 70.9999,-19.9999 101.0002,-22.998 270,-22.998 179.9998,1 195.005,2.0039 280.0049,29.0039 190.9998,59.9999 330.9933,143.0001 477.9931,285 175.9999,169.9998 282.0071,323.0014 497.0069,716.001 27,49.9999 57.9922,98.9913 136.9922,215.9912 34.9999,49.9999 77.0098,127.9981 95.0097,172.998 29,74 31.9922,91.0109 31.9922,196.0108 0,203.9998 -19.0001,251.001 -120,296.001 -43.9999,18.9999 -51.9951,26.9961 -49.9951,45.9961 2,12.9999 8.9922,68.0029 16.9922,123.0029 8,61.9999 13.0078,194.9953 13.0078,349.9951 0,277.9997 -13.004,373.0021 -74.0039,532.002 -61.9999,162.9998 -209.0041,346.9952 -374.0039,469.9951 -119.9999,88.9999 -368.9953,202.0068 -499.9951,227.0068 -6,2 -38.001,8 -71.001,15 -32,7 -73,14.9922 -90,16.9922 -31.5,4.5 -149.5001,7.248 -266.25,7.998 z M 2876.8799,5017.876 c 20.375,-0.625 35.6211,-9.3799 59.1211,-26.8799 21,-15 80.9971,-61.9893 131.997,-103.9893 276.9998,-222.9997 537.0023,-346.0127 877.002,-413.0127 123.9999,-23.9999 273.0001,-45.9931 405,-57.9931 47,-5 242.002,-17.999 277.002,-18.999 11.9999,0 11.0019,-36.007 -7.9981,-182.0069 -9,-74.9999 -54.0059,-332.002 -66.0059,-382.0019 -9.9999,-44 15.9991,-21.9912 48.9991,39.0088 39.9999,75.9999 99.001,138.0029 131.0009,138.0029 29,0 71.001,-44.0001 86.001,-90 6,-19 9.002,-60 7.002,-90 -12,-137.9999 -32.9972,-186.0012 -176.9971,-401.001 -32,-45.9999 -99.9991,-172.9972 -153.999,-281.9971 -220.9998,-452.9995 -448.0033,-681.003 -753.0029,-753.0029 -44,-11 -126.008,-18.0098 -238.0079,-20.0098 -154.9998,-3 -179,-0.9902 -255,20.0098 -180.9998,50 -274.9942,102.9962 -398.9941,225.9961 -147.9999,144.9999 -208.0011,236.0003 -371.001,555 -69.9999,136.9999 -142.0039,262.9971 -179.0039,311.9971 -107.9999,143.9998 -128.9892,195.9962 -133.9892,330.9961 -2,75.9999 0.9961,100.0117 15.9961,132.0117 22.9999,46.9999 67.001,68.9912 101.0009,50.9912 28,-15 76.9971,-85.9952 116.9971,-169.9951 17,-35 34.002,-61.0078 37.002,-58.0078 3.9999,5 -9.0069,93.0118 -32.0069,207.0117 -11,53.9999 -31.9902,180 -39.9902,240 -3,25 -8.001,109.002 -11.001,187.0019 -4,129.9999 -3.0039,146.9981 15.9961,187.9981 79.9999,176.9998 257.9972,347.001 416.9971,401.001 43.9999,14.9999 69.5078,22.4951 89.8828,21.8701 z M 2842.998,3994.375 c -166.2498,0.875 -328,-0.3799 -345,-4.3799 -37.9999,-9 -37.0038,-99.9902 0.9961,-99.9902 16,0 18.003,-9.0118 18.003,-87.0117 0,-116.9999 7.998,-167.9991 37.998,-228.9991 32,-65.9999 99.005,-105 205.0049,-120 134.9999,-17.9999 177.005,-20.999 280.0049,-18.999 211.9998,5 280.9932,43.008 372.9931,208.0078 52,94.9999 76.0011,117.9912 116.001,110.9912 31,-6 49.002,-26.9971 97.002,-116.997 64.9999,-123.9999 124.0011,-168.9932 251.001,-192.9932 62.9999,-12 267.0029,-12 333.0029,0 19,4 58.9893,10.9961 88.9892,15.9961 107.9999,20 171.0059,66.0001 201.0059,150 7,19 13.9961,88.9952 15.9961,154.9951 4,108.9999 6.0088,120.002 24.0088,127.002 16,6 19.9951,16.002 19.9951,52.0019 0,40 -1.9971,44.0069 -26.9971,47.0069 -16,2 -173.9982,3.9882 -352.998,2.9882 -348.9997,-1 -468.0011,-11.9902 -551.001,-54.9902 -54.9999,-28 -157.0079,-28.0039 -223.0078,0.9961 -56,24 -106.0011,35.9961 -191.001,45.9961 -34.9999,4.5 -205.7472,7.5039 -371.9971,8.3789 z m -117.4072,-68.833 c 1.0918,0.1309 1.9024,-0.042 2.4024,-0.542 4,-3 -14.9932,-25.9951 -42.9932,-49.9951 -63.9999,-57 -73.997,-47.0029 -11.9971,11.9971 23.625,21.8749 44.9453,37.624 52.5879,38.54 z m 1141.0401,-35.918 c 2.25,-0.75 3.3691,-3.6279 3.3691,-8.6279 0,-12 -80.9971,-103.002 -86.9971,-97.002 -3,2 12.003,27.005 33.003,55.0049 26.9999,36 43.875,52.875 50.625,50.625 z m -558.6329,-1873.623 -74.0039,-79.9951 c -44.9999,-49 -73.9892,-89.0118 -73.9892,-102.0118 0,-28.9999 70.9991,-122.9942 153.999,-203.9941 36,-35 65.9912,-67.9932 65.9912,-72.9932 0,-4 -51.9903,-139.0079 -114.9902,-298.0078 C 3202.0049,1098.9992 3150,964.00292 3150,958.00293 c 0,-33.99997 218.0001,-261.00786 300,-313.00781 l 41.9971,-26.99707 36.0058,18.99902 c 45,22.99998 306.9961,280.00101 315.9961,311.00098 7,19.99998 -18.9952,96.99725 -79.9951,236.99705 -26,61 -144.0088,366.0078 -144.0088,373.0078 0,4 15.003,22.9932 33.0029,42.9932 17,20 61.002,68.9991 97.002,108.999 76.9999,85.9999 92.9941,113.002 83.9941,142.002 -8,27.9999 -100.9893,125.998 -133.9892,142.998 -24,12 -90.008,15.999 -298.0078,18.999 z" />
    <path
       d="m 2585,1992 c -11,-2 -31,-7 -45,-12 -14,-5 -122,-39 -240,-75 -608,-188 -850,-285 -1042,-417 -100,-69 -188,-154 -188,-181 0,-23 216,-241 341,-345 273,-225 648,-438 963,-548 39,-14 80,-29 91,-34 20,-9 185,-57 221,-64 10,-2 57,-13 104,-25 75,-18 194,-40 300,-55 87,-12 217,-19 350,-20 140,0 407,11 446,18 10,2 44,7 74,11 306,39 657,145 947,286 280,136 413,220 668,422 125,99 355,329 355,355 0,19 -90,111 -165,167 -73,56 -187,118 -340,185 -85,38 -366,132 -635,215 -102,31 -194,60 -205,65 -30,13 -189,59 -192,56 -6,-5 -13,-111 -18,-269 -7,-200 -16,-237 -123,-467 -20,-43 -139,-257 -152,-273 -5,-7 -50,-66 -99,-133 -101,-136 -296,-336 -414,-425 -43,-32 -82,-59 -87,-59 -22,0 -187,136 -290,239 -204,205 -382,467 -508,749 -62,140 -74,198 -79,412 -3,107 -8,202 -12,210 -3,9 -15,14 -26,12 z"
       id="path4"
       style="fill:#ffffff;fill-opacity:1;stroke:none;stroke-opacity:1" />
  </g>
</svg>
