<?xml version="1.0" encoding="UTF-8" standalone="no"?>
<!-- Created with Inkscape (http://www.inkscape.org/) -->

<svg
   width="340.78281mm"
   height="35.136356mm"
   viewBox="0 0 340.7828 35.136356"
   version="1.1"
   id="svg1"
   sodipodi:docname="logo.svg"
   inkscape:version="1.4 (86a8ad7, 2024-10-11)"
   xmlns:inkscape="http://www.inkscape.org/namespaces/inkscape"
   xmlns:sodipodi="http://sodipodi.sourceforge.net/DTD/sodipodi-0.dtd"
   xmlns="http://www.w3.org/2000/svg"
   xmlns:svg="http://www.w3.org/2000/svg">
  <sodipodi:namedview
     id="namedview1"
     pagecolor="#ffffff"
     bordercolor="#000000"
     borderopacity="0.25"
     inkscape:showpageshadow="2"
     inkscape:pageopacity="0.0"
     inkscape:pagecheckerboard="0"
     inkscape:deskcolor="#d1d1d1"
     inkscape:document-units="mm"
     inkscape:zoom="0.8579212"
     inkscape:cx="644.58134"
     inkscape:cy="65.856864"
     inkscape:window-width="3840"
     inkscape:window-height="2054"
     inkscape:window-x="-11"
     inkscape:window-y="-11"
     inkscape:window-maximized="1"
     inkscape:current-layer="layer1" />
  <defs
     id="defs1" />
  <g
     id="layer1"
     transform="translate(-38.950581,-80.004385)">
    <path
       id="text1"
       style="font-size:35.2777px;font-family:Seeds;-inkscape-font-specification:'Seeds, Normal';stroke-width:0.264583;fill:#ffffff;fill-opacity:1"
       d="m 63.080374,80.004385 c -1.199441,0 -2.046009,0.482167 -2.539896,1.446423 -0.141111,0.30574 -0.270498,0.799529 -0.38809,1.481564 v 23.530348 c 0.09407,0.65852 0.211838,1.14068 0.35295,1.44642 0.493887,0.98777 1.352077,1.48156 2.575036,1.48156 h 11.747604 c 0.658516,-0.0941 1.152305,-0.21183 1.481563,-0.35295 0.987774,-0.49388 1.481563,-1.35207 1.481563,-2.57503 0,-1.19944 -0.493789,-2.04601 -1.481563,-2.5399 -0.329258,-0.14111 -0.823047,-0.2705 -1.481563,-0.38809 h -6.032707 c -1.269996,0 -2.116564,-0.49379 -2.539897,-1.48156 -0.117592,-0.32926 -0.199976,-0.82357 -0.247013,-1.48208 v -7.337538 c 0.04703,-0.329258 0.106175,-0.576411 0.176733,-0.74104 0.235185,-0.493888 0.670349,-0.740524 1.305347,-0.740524 0.658516,-0.09407 1.140683,-0.211839 1.446423,-0.35295 0.987775,-0.493887 1.481564,-1.352078 1.481564,-2.575036 0,-1.199441 -0.482167,-2.046527 -1.446424,-2.540414 -0.305739,-0.14111 -0.752526,-0.258359 -1.340486,-0.352433 -0.564443,-0.09407 -0.940983,-0.223461 -1.12913,-0.38809 -0.329258,-0.30574 -0.494027,-0.729283 -0.494027,-1.270207 v -1.340486 c -0.09407,-0.658516 -0.211323,-1.140684 -0.352433,-1.446424 -0.493888,-0.987775 -1.352595,-1.481563 -2.575554,-1.481563 z m 63.570796,0 c -1.19944,0 -2.04652,0.482167 -2.54041,1.446423 -0.14111,0.30574 -0.2705,0.799529 -0.38809,1.481564 v 5.89163 17.638718 c 0.0706,0.65852 0.18831,1.14068 0.35295,1.44642 0.49388,0.98777 1.35259,1.48156 2.57555,1.48156 1.19944,0 2.04601,-0.48217 2.5399,-1.44642 0.16463,-0.30574 0.29401,-0.79952 0.38809,-1.48156 V 94.715115 c 0.0941,-0.658517 0.22346,-1.152305 0.38809,-1.481563 0.5174,-0.987775 1.42259,-1.481564 2.71611,-1.481564 1.1524,0 1.9641,0.493789 2.43448,1.481564 0.1411,0.329258 0.25836,0.823046 0.35243,1.481563 v 4.40955 c 0.0706,0.658519 0.1767,1.140685 0.31781,1.446425 0.47037,0.98777 1.34019,1.48208 2.61018,1.48208 1.24648,0 2.1168,-0.48217 2.61069,-1.44642 0.14111,-0.30574 0.25888,-0.800053 0.35295,-1.482085 V 88.824002 c -0.0941,-0.658517 -0.21184,-1.140684 -0.35295,-1.446424 -0.49389,-0.987774 -1.36421,-1.481563 -2.61069,-1.481563 h -5.85598 c -1.22295,0 -2.08115,-0.494306 -2.57503,-1.48208 -0.16463,-0.329258 -0.29402,-0.823047 -0.38809,-1.481563 -0.0941,-0.658516 -0.21184,-1.140684 -0.35295,-1.446424 -0.49389,-0.987775 -1.35208,-1.481563 -2.57504,-1.481563 z m 81.24414,0 c -1.19944,0 -2.04601,0.482167 -2.5399,1.446423 -0.14111,0.30574 -0.2705,0.799529 -0.38809,1.481564 v 23.530348 c 0.0941,0.65852 0.21184,1.14068 0.35295,1.44642 0.49389,0.98777 1.35208,1.48156 2.57504,1.48156 h 4.41006 c 0.65852,-0.0941 1.14069,-0.21183 1.44643,-0.35295 0.98777,-0.49388 1.48156,-1.35207 1.48156,-2.57503 0,-1.19944 -0.48217,-2.04601 -1.44642,-2.5399 -0.30574,-0.14111 -0.79953,-0.2705 -1.48157,-0.38809 -0.61148,0 -1.04664,-0.24715 -1.30534,-0.74104 -0.0706,-0.16462 -0.1297,-0.41126 -0.17674,-0.74052 V 82.932372 c -0.0941,-0.658516 -0.21132,-1.140684 -0.35243,-1.446424 -0.49389,-0.987775 -1.35259,-1.481563 -2.57555,-1.481563 z m 30.02142,0 c -1.19944,0 -2.04601,0.482167 -2.5399,1.446423 -0.1411,0.30574 -0.27049,0.799529 -0.38809,1.481564 v 23.530348 c 0.0941,0.65852 0.21184,1.14068 0.35295,1.44642 0.49389,0.98777 1.35208,1.48156 2.57504,1.48156 h 11.7476 c 0.65852,-0.0941 1.15231,-0.21183 1.48157,-0.35295 0.98778,-0.49388 1.48156,-1.35207 1.48156,-2.57503 0,-1.19944 -0.49378,-2.04601 -1.48156,-2.5399 -0.32926,-0.14111 -0.82305,-0.2705 -1.48157,-0.38809 h -6.0327 c -1.26999,0 -2.11657,-0.49379 -2.5399,-1.48156 -0.11759,-0.32926 -0.19998,-0.82357 -0.24701,-1.48208 v -7.337538 c 0.047,-0.329258 0.10614,-0.576411 0.17673,-0.74104 0.23518,-0.493888 0.66983,-0.740524 1.30483,-0.740524 0.65852,-0.09407 1.14068,-0.211839 1.44642,-0.35295 0.98778,-0.493887 1.48208,-1.352078 1.48208,-2.575036 0,-1.199441 -0.48216,-2.046527 -1.44642,-2.540414 -0.30574,-0.14111 -0.75304,-0.258359 -1.341,-0.352433 -0.56444,-0.09407 -0.94046,-0.223461 -1.12862,-0.38809 -0.32925,-0.30574 -0.49402,-0.729283 -0.49402,-1.270207 v -1.340486 c -0.0941,-0.658516 -0.21132,-1.140684 -0.35244,-1.446424 -0.49388,-0.987775 -1.35259,-1.481563 -2.57555,-1.481563 z m 21.16667,0 c -1.19944,0 -2.04601,0.482167 -2.5399,1.446423 -0.14111,0.30574 -0.2705,0.799529 -0.38809,1.481564 v 23.530348 c 0.0941,0.65852 0.21184,1.14068 0.35295,1.44642 0.49389,0.98777 1.35208,1.48156 2.57504,1.48156 h 11.7476 c 0.65851,-0.0941 1.1523,-0.21183 1.48156,-0.35295 0.98778,-0.49388 1.48157,-1.35207 1.48157,-2.57503 0,-1.19944 -0.49379,-2.04601 -1.48157,-2.5399 -0.32926,-0.14111 -0.82305,-0.2705 -1.48156,-0.38809 h -6.03271 c -1.26999,0 -2.11656,-0.49379 -2.53989,-1.48156 -0.1176,-0.32926 -0.19998,-0.82357 -0.24702,-1.48208 v -7.337538 c 0.0471,-0.329258 0.10569,-0.576411 0.17622,-0.74104 0.23519,-0.493888 0.67035,-0.740524 1.30535,-0.740524 0.65851,-0.09407 1.14068,-0.211839 1.44642,-0.35295 0.98777,-0.493887 1.48156,-1.352078 1.48156,-2.575036 0,-1.199441 -0.48165,-2.046527 -1.4459,-2.540414 -0.30574,-0.14111 -0.75305,-0.258359 -1.34101,-0.352433 -0.56444,-0.09407 -0.94046,-0.223461 -1.12861,-0.38809 -0.32926,-0.30574 -0.49403,-0.729283 -0.49403,-1.270207 v -1.340486 c -0.0941,-0.658516 -0.21184,-1.140684 -0.35295,-1.446424 -0.49389,-0.987775 -1.35207,-1.481563 -2.57503,-1.481563 z m 21.16666,0 c -1.19943,0 -2.04601,0.482167 -2.53989,1.446423 -0.14112,0.30574 -0.2705,0.799529 -0.38809,1.481564 v 23.530348 c 0.0941,0.65852 0.21132,1.14068 0.35243,1.44642 0.49389,0.98777 1.3526,1.48156 2.57555,1.48156 h 4.40955 c 0.65852,-0.0941 1.14069,-0.21183 1.44643,-0.35295 0.98777,-0.49388 1.48156,-1.35207 1.48156,-2.57503 0,-1.19944 -0.48217,-2.04601 -1.44642,-2.5399 -0.30574,-0.14111 -0.79953,-0.2705 -1.48157,-0.38809 -0.61148,0 -1.04664,-0.24715 -1.30534,-0.74104 -0.0706,-0.16462 -0.12919,-0.41126 -0.17622,-0.74052 V 82.932372 c -0.0941,-0.658516 -0.21184,-1.140684 -0.35295,-1.446424 -0.49389,-0.987775 -1.35208,-1.481563 -2.57504,-1.481563 z m 42.40362,0 c -1.19945,0 -2.04601,0.482167 -2.5399,1.446423 -0.14111,0.30574 -0.2705,0.799529 -0.38809,1.481564 v 23.530348 c 0.0941,0.65852 0.21184,1.14068 0.35295,1.44642 0.49389,0.98777 1.35208,1.48156 2.57504,1.48156 h 11.7476 c 0.65852,-0.0941 1.15231,-0.21183 1.48156,-0.35295 0.98778,-0.49388 1.48157,-1.35207 1.48157,-2.57503 0,-1.19944 -0.49379,-2.04601 -1.48157,-2.5399 -0.32925,-0.14111 -0.82304,-0.2705 -1.48156,-0.38809 h -6.03271 c -1.26999,0 -2.11656,-0.49379 -2.53989,-1.48156 -0.1176,-0.32926 -0.19998,-0.82357 -0.24702,-1.48208 v -7.337538 c 0.047,-0.329258 0.10614,-0.576411 0.17674,-0.74104 0.23518,-0.493888 0.67034,-0.740524 1.30534,-0.740524 0.65852,-0.09407 1.14069,-0.211839 1.44643,-0.35295 0.98777,-0.493887 1.48156,-1.352078 1.48156,-2.575036 0,-1.199441 -0.48216,-2.046527 -1.44642,-2.540414 -0.30574,-0.14111 -0.75253,-0.258359 -1.34049,-0.352433 -0.56444,-0.09407 -0.94098,-0.223461 -1.12913,-0.38809 -0.32925,-0.30574 -0.49403,-0.729283 -0.49403,-1.270207 v -1.340486 c -0.0941,-0.658516 -0.21132,-1.140684 -0.35243,-1.446424 -0.49389,-0.987775 -1.35259,-1.481563 -2.57555,-1.481563 z m -94.15601,0.105937 c -0.82315,0 -1.51709,0.282018 -2.08153,0.84646 -0.56445,0.564442 -0.84646,1.270002 -0.84646,2.116666 0,0.823146 0.28201,1.517085 0.84646,2.081527 0.56444,0.564443 1.25838,0.84646 2.08153,0.84646 0.79962,0 1.49356,-0.282017 2.08152,-0.84646 0.58797,-0.564442 0.8816,-1.258381 0.8816,-2.081527 0,-0.846664 -0.28201,-1.552224 -0.84646,-2.116666 -0.56444,-0.564442 -1.27,-0.84646 -2.11666,-0.84646 z m -186.619102,5.6441 c -0.658517,0.09407 -1.140684,0.211839 -1.446424,0.35295 -0.987774,0.493887 -1.481563,1.352594 -1.481563,2.575553 v 8.8191 c 0,1.246477 0.482168,2.116804 1.446423,2.610695 0.30574,0.1411 0.799528,0.25888 1.481564,0.35295 h 8.819616 c 0.470369,0.0706 0.799389,0.17619 0.987537,0.31729 0.30574,0.25871 0.458887,0.63525 0.458887,1.12913 0,0.635 -0.235532,1.06965 -0.7059,1.30483 -0.141111,0.0706 -0.387747,0.1297 -0.740524,0.17674 h -8.819616 c -0.658517,0.0705 -1.140684,0.1878 -1.446424,0.35243 -0.987774,0.49388 -1.481563,1.35259 -1.481563,2.57555 0,1.22296 0.482168,2.08115 1.446423,2.57504 0.30574,0.16463 0.799528,0.29402 1.481564,0.38809 h 11.747603 c 0.658517,-0.0705 1.152305,-0.1878 1.481563,-0.35243 0.987775,-0.49389 1.481564,-1.36422 1.481564,-2.6107 v -8.819615 c 0,-1.222959 -0.493789,-2.081149 -1.481564,-2.575037 -0.329258,-0.14111 -0.823046,-0.258876 -1.481563,-0.35295 h -8.819617 c -0.352777,-0.04703 -0.611551,-0.105657 -0.77618,-0.176216 -0.517405,-0.235185 -0.775663,-0.67035 -0.775663,-1.305347 0,-0.61148 0.258258,-1.035022 0.775663,-1.270207 0.164629,-0.07055 0.423403,-0.12918 0.77618,-0.176216 h 1.481564 c 0.658516,-0.07056 1.140683,-0.188321 1.446423,-0.35295 0.987774,-0.493888 1.48208,-1.3637 1.48208,-2.610177 0,-1.19944 -0.482167,-2.046526 -1.446423,-2.540413 -0.30574,-0.141111 -0.800046,-0.270498 -1.48208,-0.38809 z m 11.747603,0 c -0.823145,0 -1.517084,0.282534 -2.081527,0.846976 -0.564442,0.564443 -0.84646,1.258382 -0.84646,2.081527 0,0.799627 0.282018,1.493049 0.84646,2.08101 0.564443,0.587961 1.258382,0.882117 2.081527,0.882117 0.823146,0 1.517085,-0.282018 2.081527,-0.84646 0.587961,-0.587961 0.8816,-1.293521 0.8816,-2.116667 0,-0.823145 -0.282018,-1.517084 -0.84646,-2.081527 -0.564443,-0.564442 -1.270003,-0.846976 -2.116667,-0.846976 z m 30.62087,0 c -0.658516,0.09407 -1.140684,0.211839 -1.446423,0.35295 -0.987775,0.493887 -1.481564,1.352594 -1.481564,2.575553 v 8.8191 8.819615 c 0,1.22296 0.482167,2.08115 1.446424,2.57504 0.305739,0.16463 0.799528,0.29402 1.481563,0.38809 h 4.410067 c 0.658516,-0.0705 1.140167,-0.1878 1.445906,-0.35243 0.987775,-0.49389 1.48208,-1.36422 1.48208,-2.6107 0,-1.19944 -0.494305,-2.04601 -1.48208,-2.53989 -0.329258,-0.16464 -0.740663,-0.2824 -1.23455,-0.35296 -0.493887,-0.0706 -0.811286,-0.14131 -0.952396,-0.21187 -0.493888,-0.2587 -0.74104,-0.69335 -0.74104,-1.30483 0,-0.61148 0.235531,-1.03502 0.7059,-1.2702 0.14111,-0.0706 0.387746,-0.12918 0.740523,-0.17622 h 7.373193 c 0.658516,-0.0705 1.152305,-0.1767 1.481564,-0.31781 0.987775,-0.470368 1.481563,-1.352321 1.481563,-2.645835 v -8.8191 c 0,-1.19944 -0.493788,-2.046526 -1.481563,-2.540413 -0.329259,-0.141111 -0.823048,-0.270498 -1.481564,-0.38809 z m 21.201809,0 c -0.65852,0.09407 -1.14069,0.211839 -1.44643,0.35295 -0.98777,0.493887 -1.48156,1.352594 -1.48156,2.575553 v 8.8191 7.373195 c 0.0706,0.65851 0.1767,1.14068 0.31781,1.44642 0.47037,0.98777 1.34019,1.48156 2.61018,1.48156 1.24648,0 2.10518,-0.48217 2.57555,-1.44642 0.14111,-0.30574 0.25836,-0.79953 0.35243,-1.48156 v -1.48156 c 0,-1.19944 0.48217,-2.04602 1.44643,-2.5399 0.30574,-0.14111 0.80005,-0.2705 1.48208,-0.38809 h 5.89111 c 0.65851,-0.0705 1.1523,-0.1767 1.48156,-0.31781 0.98778,-0.470368 1.48208,-1.352321 1.48208,-2.645835 v -8.8191 c 0,-1.19944 -0.4943,-2.046526 -1.48208,-2.540413 -0.32926,-0.141111 -0.82305,-0.270498 -1.48156,-0.38809 z m 42.40413,0 c -0.65852,0.09407 -1.14069,0.211839 -1.44643,0.35295 -0.98777,0.493887 -1.48156,1.352594 -1.48156,2.575553 v 8.8191 8.819615 c 0,1.22296 0.48217,2.08115 1.44642,2.57504 0.30574,0.16463 0.79953,0.29402 1.48157,0.38809 h 4.40955 c 0.65852,-0.0705 1.14068,-0.1878 1.44642,-0.35243 0.98777,-0.49389 1.48156,-1.36422 1.48156,-2.6107 0,-1.19944 -0.49379,-2.04601 -1.48156,-2.53989 -0.32926,-0.16464 -0.74066,-0.2824 -1.23455,-0.35296 -0.49389,-0.0706 -0.81181,-0.14131 -0.95291,-0.21187 -0.49389,-0.2587 -0.74053,-0.69335 -0.74053,-1.30483 0,-0.61148 0.23502,-1.03502 0.70539,-1.2702 0.14111,-0.0706 0.38826,-0.12918 0.74104,-0.17622 h 7.37267 c 0.65852,-0.0705 1.15283,-0.1767 1.48208,-0.31781 0.98778,-0.470368 1.48157,-1.352321 1.48157,-2.645835 v -8.8191 c 0,-1.19944 -0.49379,-2.046526 -1.48157,-2.540413 -0.32925,-0.141111 -0.82356,-0.270498 -1.48208,-0.38809 z m 21.2018,0 c -1.22295,0 -2.08166,0.482167 -2.57555,1.446423 -0.14111,0.30574 -0.25836,0.800045 -0.35243,1.48208 v 17.638715 c 0.0705,0.65852 0.17618,1.15231 0.31729,1.48156 0.47037,0.98778 1.3407,1.48157 2.61069,1.48157 1.24648,0 2.10467,-0.49379 2.57504,-1.48157 0.14111,-0.32925 0.25888,-0.82304 0.35295,-1.48156 V 94.574038 c 0.0706,-0.658516 0.17618,-1.140683 0.31729,-1.446423 0.47037,-0.987774 1.2937,-1.481563 2.46962,-1.481563 1.29352,0 2.19922,0.482167 2.71663,1.446423 0.16463,0.30574 0.2935,0.799529 0.38757,1.481563 v 4.40955 c 0.0706,0.658517 0.18832,1.140682 0.35295,1.446422 0.49389,0.98777 1.3526,1.48208 2.57556,1.48208 1.22296,0 2.08115,-0.48216 2.57503,-1.44642 0.16464,-0.30574 0.29402,-0.800049 0.38809,-1.482082 V 88.682925 c -0.0706,-0.658516 -0.18832,-1.140684 -0.35295,-1.446423 -0.49388,-0.987775 -1.36369,-1.48208 -2.61017,-1.48208 z m 132.39709,0 c -0.65851,0.09407 -1.14068,0.211839 -1.44642,0.35295 -0.98778,0.493887 -1.48157,1.352594 -1.48157,2.575553 v 8.8191 8.819615 c 0,1.22296 0.48217,2.08115 1.44643,2.57504 0.30574,0.16463 0.79953,0.29402 1.48156,0.38809 h 4.40955 c 0.65851,-0.0705 1.14068,-0.1878 1.44642,-0.35243 0.98778,-0.49389 1.48208,-1.36422 1.48208,-2.6107 0,-1.19944 -0.4943,-2.04601 -1.48208,-2.53989 -0.32926,-0.16464 -0.74066,-0.2824 -1.23455,-0.35296 -0.49388,-0.0706 -0.81128,-0.14131 -0.95239,-0.21187 -0.49389,-0.2587 -0.74104,-0.69335 -0.74104,-1.30483 0,-0.61148 0.23552,-1.03502 0.7059,-1.2702 0.1411,-0.0706 0.38774,-0.12918 0.74052,-0.17622 h 7.37319 c 0.65852,-0.0705 1.15231,-0.1767 1.48157,-0.31781 0.98777,-0.470368 1.48156,-1.352321 1.48156,-2.645835 v -8.8191 c 0,-1.19944 -0.49379,-2.046526 -1.48156,-2.540413 -0.32926,-0.141111 -0.82305,-0.270498 -1.48157,-0.38809 z m 63.57028,0 c -1.22296,0 -2.08115,0.482167 -2.57504,1.446423 -0.14111,0.30574 -0.25887,0.800045 -0.35295,1.48208 v 17.638715 c 0.0706,0.65852 0.1767,1.15231 0.31781,1.48156 0.47037,0.98778 1.34018,1.48157 2.61018,1.48157 1.24648,0 2.10519,-0.49379 2.57555,-1.48157 0.14112,-0.32925 0.25836,-0.82304 0.35244,-1.48156 V 94.574038 c 0.0706,-0.658516 0.17669,-1.140683 0.31781,-1.446423 0.47036,-0.987774 1.29369,-1.481563 2.46961,-1.481563 1.29352,0 2.19871,0.482167 2.71612,1.446423 0.16462,0.30574 0.29401,0.799529 0.38809,1.481563 v 4.40955 c 0.0706,0.658517 0.18832,1.140682 0.35295,1.446422 0.49388,0.98777 1.35208,1.48208 2.57503,1.48208 1.22296,0 2.08167,-0.48216 2.57556,-1.44642 0.16463,-0.30574 0.29401,-0.800049 0.38809,-1.482082 V 88.682925 c -0.0706,-0.658516 -0.18832,-1.140684 -0.35295,-1.446423 -0.49389,-0.987775 -1.36422,-1.48208 -2.6107,-1.48208 z M 74.827978,85.896015 c -0.823146,0 -1.517084,0.282017 -2.081527,0.84646 -0.564443,0.564443 -0.84646,1.258382 -0.84646,2.081527 0,0.823146 0.282017,1.516568 0.84646,2.08101 0.564443,0.564442 1.258381,0.846976 2.081527,0.846976 0.799627,0 1.493566,-0.282534 2.081526,-0.846976 0.587962,-0.564442 0.8816,-1.257864 0.8816,-2.08101 0,-0.823145 -0.282017,-1.517084 -0.84646,-2.081527 -0.564442,-0.564443 -1.270003,-0.84646 -2.116666,-0.84646 z m 174.836352,0 c -0.82314,0 -1.51708,0.282017 -2.08152,0.84646 -0.56445,0.564443 -0.84646,1.258382 -0.84646,2.081527 0,0.823146 0.28201,1.516568 0.84646,2.08101 0.56444,0.564442 1.25838,0.846976 2.08152,0.846976 0.79963,0 1.49356,-0.282534 2.08153,-0.846976 0.58796,-0.564442 0.8816,-1.257864 0.8816,-2.08101 0,-0.823145 -0.28201,-1.517084 -0.84646,-2.081527 -0.56444,-0.564443 -1.27,-0.84646 -2.11667,-0.84646 z m 21.16667,0 c -0.82314,0 -1.51708,0.282017 -2.08153,0.84646 -0.56444,0.564443 -0.84646,1.258382 -0.84646,2.081527 0,0.823146 0.28202,1.516568 0.84646,2.08101 0.56445,0.564442 1.25839,0.846976 2.08153,0.846976 0.79963,0 1.49305,-0.282534 2.08101,-0.846976 0.58796,-0.564442 0.88212,-1.257864 0.88212,-2.08101 0,-0.823145 -0.28202,-1.517084 -0.84646,-2.081527 -0.56445,-0.564443 -1.27001,-0.84646 -2.11667,-0.84646 z m 63.57028,0 c -0.82314,0 -1.51709,0.282017 -2.08153,0.84646 -0.56444,0.564443 -0.84646,1.258382 -0.84646,2.081527 0,0.823146 0.28202,1.516568 0.84646,2.08101 0.56444,0.564442 1.25839,0.846976 2.08153,0.846976 0.79963,0 1.49356,-0.282534 2.08153,-0.846976 0.58796,-0.564442 0.8816,-1.257864 0.8816,-2.08101 0,-0.823145 -0.28202,-1.517084 -0.84646,-2.081527 -0.56444,-0.564443 -1.27,-0.84646 -2.11667,-0.84646 z m 9.41906,0.10542 c -1.24647,0 -2.10466,0.482167 -2.57503,1.446423 -0.14111,0.30574 -0.25888,0.799529 -0.35295,1.481564 v 17.639238 c 0.0941,0.65851 0.21184,1.1523 0.35295,1.48156 0.47037,0.98777 1.32856,1.48156 2.57503,1.48156 h 11.74761 c 0.65851,-0.11759 1.1523,-0.2586 1.48156,-0.42323 0.98777,-0.5174 1.48156,-1.36398 1.48156,-2.53989 0,-1.15241 -0.49379,-1.98736 -1.48156,-2.50476 -0.32926,-0.16463 -0.82305,-0.30565 -1.48156,-0.42323 h -5.85598 c -1.22295,0 -2.08166,-0.48217 -2.57555,-1.44642 -0.16463,-0.30574 -0.29402,-0.80005 -0.38809,-1.48209 v -7.372672 c 0.0706,-0.705552 0.18832,-1.223101 0.35295,-1.55236 0.49389,-1.034811 1.36422,-1.55236 2.61069,-1.55236 1.19944,0 2.04601,0.517549 2.5399,1.55236 0.14111,0.329259 0.25888,0.834669 0.35295,1.516704 0.11759,0.682034 0.24698,1.187961 0.38809,1.51722 0.49389,0.987774 1.35208,1.481563 2.57504,1.481563 1.22296,0 2.08115,-0.493789 2.57503,-1.481563 0.16463,-0.329259 0.29402,-0.823047 0.38809,-1.481564 v -4.410066 c -0.0706,-0.658516 -0.1878,-1.140167 -0.35243,-1.445907 -0.49389,-0.987775 -1.36421,-1.48208 -2.61069,-1.48208 z m -115.32267,1.48208 c -1.19944,0 -2.04601,0.481651 -2.5399,1.445907 -0.14111,0.305739 -0.2705,0.800045 -0.38809,1.48208 v 16.157158 c 0.0941,0.65851 0.21132,1.1523 0.35243,1.48156 0.49389,0.98777 1.3526,1.48156 2.57556,1.48156 1.22296,0 2.08115,-0.49379 2.57503,-1.48156 0.16464,-0.32926 0.29402,-0.82305 0.38809,-1.48156 V 90.411502 c -0.0706,-0.658516 -0.1878,-1.140684 -0.35243,-1.446424 -0.49389,-0.987774 -1.36421,-1.481563 -2.61069,-1.481563 z M 88.692248,91.646052 h 2.82205 c 0.352777,0.04703 0.61155,0.105658 0.77618,0.176216 0.517405,0.235185 0.77618,0.658727 0.77618,1.270207 0,0.611479 -0.258775,1.046644 -0.77618,1.305347 -0.16463,0.07056 -0.423403,0.12918 -0.77618,0.176216 h -2.892847 c -0.423332,0 -0.776112,-0.129387 -1.058333,-0.38809 -0.258703,-0.282221 -0.38809,-0.646623 -0.38809,-1.093473 0,-0.587961 0.211771,-0.999366 0.635103,-1.23455 0.258702,-0.14111 0.552858,-0.211873 0.882117,-0.211873 z m 21.201802,0 h 2.82205 c 0.35278,0.04703 0.61155,0.105658 0.77618,0.176216 0.51741,0.235185 0.77618,0.670349 0.77618,1.305347 0,0.611479 -0.25877,1.046644 -0.77618,1.305347 -0.16463,0.07055 -0.4234,0.129179 -0.77618,0.176216 l -3.03392,-0.03514 c -0.42333,-0.04703 -0.75235,-0.199663 -0.98754,-0.45837 -0.21166,-0.258703 -0.31781,-0.588239 -0.31781,-0.988053 0,-0.587961 0.21177,-0.999366 0.63511,-1.23455 0.21166,-0.117593 0.50582,-0.199977 0.88211,-0.247013 z m 42.40362,0 h 2.82256 c 0.35278,0.04703 0.61104,0.105658 0.77567,0.176216 0.5174,0.235185 0.77618,0.658727 0.77618,1.270207 0,0.611479 -0.25878,1.046644 -0.77618,1.305347 -0.16463,0.07056 -0.42289,0.12918 -0.77567,0.176216 h -2.89284 c -0.42334,0 -0.77612,-0.129387 -1.05834,-0.38809 -0.2587,-0.282221 -0.38809,-0.646623 -0.38809,-1.093473 0,-0.587961 0.21177,-0.999366 0.63511,-1.23455 0.2587,-0.14111 0.55234,-0.211873 0.8816,-0.211873 z m 153.59941,0 h 2.82205 c 0.35278,0.04703 0.61155,0.105658 0.77618,0.176216 0.5174,0.235185 0.77618,0.658727 0.77618,1.270207 0,0.611479 -0.25878,1.046644 -0.77618,1.305347 -0.16463,0.07056 -0.4234,0.12918 -0.77618,0.176216 h -2.89285 c -0.42333,0 -0.77611,-0.129387 -1.05833,-0.38809 -0.25871,-0.282221 -0.38809,-0.646623 -0.38809,-1.093473 0,-0.587961 0.21177,-0.999366 0.6351,-1.23455 0.25871,-0.14111 0.55286,-0.211873 0.88212,-0.211873 z m 49.67087,5.467883 c -0.82315,0 -1.51708,0.282534 -2.08153,0.846977 -0.56444,0.564442 -0.84646,1.257865 -0.84646,2.081008 0,0.82315 0.28202,1.51708 0.84646,2.08153 0.56445,0.56444 1.25838,0.84698 2.08153,0.84698 0.79962,0 1.49356,-0.28254 2.08152,-0.84698 0.58796,-0.56445 0.8816,-1.25838 0.8816,-2.08153 0,-0.823143 -0.28202,-1.516566 -0.84646,-2.081008 -0.56444,-0.564443 -1.27,-0.846977 -2.11666,-0.846977 z M 95.994644,103.39366 c -0.823146,0 -1.517084,0.28201 -2.081526,0.84645 -0.564443,0.56444 -0.84646,1.25839 -0.84646,2.08153 0,0.79963 0.282017,1.49356 0.84646,2.08153 0.564442,0.58796 1.25838,0.8816 2.081526,0.8816 0.823145,0 1.517084,-0.29364 2.081527,-0.8816 0.587961,-0.56445 0.8816,-1.25838 0.8816,-2.08153 0,-0.82314 -0.282017,-1.51709 -0.84646,-2.08153 -0.564443,-0.56444 -1.270003,-0.84645 -2.116667,-0.84645 z m 63.605416,0 c -0.82314,0 -1.51657,0.28201 -2.08101,0.84645 -0.56444,0.56444 -0.84697,1.25839 -0.84697,2.08153 0,0.79963 0.28253,1.49356 0.84697,2.08153 0.56444,0.58796 1.25787,0.8816 2.08101,0.8816 0.82315,0 1.51708,-0.29364 2.08153,-0.8816 0.58796,-0.56445 0.88212,-1.25838 0.88212,-2.08153 0,-0.82314 -0.28253,-1.51709 -0.84698,-2.08153 -0.56444,-0.56444 -1.27,-0.84645 -2.11667,-0.84645 z m 21.20233,0 c -0.82315,0 -1.51709,0.28201 -2.08153,0.84645 -0.56445,0.56444 -0.84698,1.25839 -0.84698,2.08153 0,0.79963 0.28253,1.49356 0.84698,2.08153 0.56444,0.58796 1.25838,0.8816 2.08153,0.8816 0.82314,0 1.51657,-0.29364 2.08101,-0.8816 0.58796,-0.56445 0.88211,-1.25838 0.88211,-2.08153 0,-0.82314 -0.28201,-1.51709 -0.84646,-2.08153 -0.56444,-0.56444 -1.27,-0.84645 -2.11666,-0.84645 z m 132.39708,0 c -0.82314,0 -1.51708,0.28201 -2.08152,0.84645 -0.56444,0.56444 -0.84646,1.25839 -0.84646,2.08153 0,0.79963 0.28202,1.49356 0.84646,2.08153 0.56444,0.58796 1.25838,0.8816 2.08152,0.8816 0.82315,0 1.51709,-0.29364 2.08153,-0.8816 0.58796,-0.56445 0.8816,-1.25838 0.8816,-2.08153 0,-0.82314 -0.28202,-1.51709 -0.84646,-2.08153 -0.56445,-0.56444 -1.27001,-0.84645 -2.11667,-0.84645 z m 63.57028,0 c -0.82314,0 -1.51708,0.28201 -2.08152,0.84645 -0.56445,0.56444 -0.84646,1.25839 -0.84646,2.08153 0,0.79963 0.28201,1.49356 0.84646,2.08153 0.56444,0.58796 1.25838,0.8816 2.08152,0.8816 0.82315,0 1.51708,-0.29364 2.08153,-0.8816 0.58796,-0.56445 0.88212,-1.25838 0.88212,-2.08153 0,-0.82314 -0.28253,-1.51709 -0.84698,-2.08153 -0.56444,-0.56444 -1.27,-0.84645 -2.11667,-0.84645 z m -238.37149,0.14107 c -0.82315,0 -1.51657,0.28202 -2.08101,0.84646 -0.56445,0.56444 -0.84698,1.25838 -0.84698,2.08153 0,0.82314 0.28253,1.51708 0.84698,2.08153 0.56444,0.56443 1.25786,0.84645 2.08101,0.84645 0.79962,0 1.49356,-0.28202 2.08152,-0.84645 0.58796,-0.56445 0.88212,-1.25839 0.88212,-2.08153 0,-0.82315 -0.28253,-1.51709 -0.84698,-2.08153 -0.56444,-0.56444 -1.27,-0.84646 -2.11666,-0.84646 z m 81.24465,0 c -0.82314,0 -1.51708,0.28202 -2.08153,0.84646 -0.56444,0.56444 -0.84646,1.25838 -0.84646,2.08153 0,0.82314 0.28202,1.51708 0.84646,2.08153 0.56445,0.56443 1.25839,0.84645 2.08153,0.84645 0.79963,0 1.49357,-0.28202 2.08153,-0.84645 0.58796,-0.56445 0.8816,-1.25839 0.8816,-2.08153 0,-0.82315 -0.28202,-1.51709 -0.84646,-2.08153 -0.56445,-0.56444 -1.27,-0.84646 -2.11667,-0.84646 z m 72.35476,0 c -0.82315,0 -1.51709,0.28202 -2.08153,0.84646 -0.56445,0.56444 -0.84646,1.25838 -0.84646,2.08153 0,0.82314 0.28201,1.51708 0.84646,2.08153 0.56444,0.56443 1.25838,0.84645 2.08153,0.84645 0.79962,0 1.49304,-0.28202 2.08101,-0.84645 0.58796,-0.56445 0.88211,-1.25839 0.88211,-2.08153 0,-0.82315 -0.28202,-1.51709 -0.84646,-2.08153 -0.56444,-0.56444 -1.27,-0.84646 -2.11666,-0.84646 z m -186.54882,5.75004 c -0.82315,0 -1.51657,0.28254 -2.08101,0.84698 -0.56445,0.56444 -0.84698,1.25786 -0.84698,2.081 0,0.82315 0.28253,1.51709 0.84698,2.08153 0.56444,0.56445 1.25786,0.84646 2.08101,0.84646 0.82314,0 1.51708,-0.28201 2.08152,-0.84646 0.56444,-0.56444 0.84646,-1.25838 0.84646,-2.08153 0,-0.82314 -0.28202,-1.51656 -0.84646,-2.081 -0.56444,-0.56444 -1.25838,-0.84698 -2.08152,-0.84698 z" />
  </g>
</svg>
